<svg xmlns="http://www.w3.org/2000/svg" xmlns:xlink="http://www.w3.org/1999/xlink" width="538" height="120" viewBox="0 0 538 120">
  <defs>
    <clipPath id="clip-path">
      <rect id="사각형_523" data-name="사각형 523" width="336" height="118" transform="translate(1171 549)" fill="#fff" stroke="#707070" stroke-width="1"/>
    </clipPath>
  </defs>
  <g id="bg_delivery" transform="translate(1985 -2485)">
    <rect id="사각형_524" data-name="사각형 524" width="538" height="120" transform="translate(-1985 2485)" fill="#6464a0"/>
    <g id="마스크_그룹_113" data-name="마스크 그룹 113" transform="translate(-2954 1938)" clip-path="url(#clip-path)">
      <g id="그룹_1290" data-name="그룹 1290" transform="translate(1194.558 563.143)">
        <ellipse id="타원_90" data-name="타원 90" cx="98.502" cy="98.05" rx="98.502" ry="98.05" transform="translate(139.27 22.946)" fill="none" stroke="#fff" stroke-miterlimit="10" stroke-width="1"/>
        <g id="그룹_1287" data-name="그룹 1287" transform="translate(161.303 25.931)">
          <path id="패스_387" data-name="패스 387" d="M2271.7-1110.292c-1.62,2.816-5.986,2.9-7.846,5.561a4.872,4.872,0,0,0,2.011,6.85,5.73,5.73,0,0,0,7.055-2.335c1.191-2.01,1.939-5.191,4.273-4.966,1.5.146,2.328,1.773,2.871,3.176q.946,2.445,1.893,4.888c1.129,2.915,1.983,6.841-.582,8.64-1.362.955-3.179.846-4.838.7l-9.887-.888c-3.34,2.441-2.065,7.609-.458,11.41a6.444,6.444,0,0,0,1.961,2.948c.982.687,2.584.634,3.161-.415a8.13,8.13,0,0,0,.42-1.864c.7-2.608,4.566-2.577,6.9-1.21s4.52,3.541,7.228,3.383c2.9-.17,4.943-3.078,5.448-5.924.2-1.1.407-2.462,1.469-2.823a2.644,2.644,0,0,1,2.1.487,19.086,19.086,0,0,1,9.233,15.486,6.466,6.466,0,0,0,.653,3.435,5.517,5.517,0,0,0,3.261,1.842c3.69,1.051,7.5,2.01,11.324,1.661,4.265-.389,8.2-2.371,12.007-4.319a23.15,23.15,0,0,0,3.843-2.349,98.626,98.626,0,0,0-63.3-49.995,24.168,24.168,0,0,1,.377,2.479A6.963,6.963,0,0,1,2271.7-1110.292Z" transform="translate(-2171.327 1116.914)" fill="none" stroke="#fff" stroke-miterlimit="10" stroke-width="1"/>
          <path id="패스_388" data-name="패스 388" d="M2182.677-1088.76c-.407,3.78-1.971,7.321-3.146,10.938a109.067,109.067,0,0,0-3.136,13.417c-1.525,8.034-3.015,16.545-.151,24.209.957,2.563,2.4,5.019,2.6,7.746.135,1.839-.31,3.7-.035,5.521a7.43,7.43,0,0,0,8.627,5.873,7.393,7.393,0,0,0,5.254-8.993c-.781-2.558-2.908-4.438-4.494-6.6s-2.627-5.244-1.069-7.422c2.062-2.885,6.92-1.972,9.474-4.437,2.581-2.492,1.474-6.962,3.275-10.059,1.821-3.128,5.911-3.91,9.485-4.546s7.682-1.912,8.879-5.324c.535-1.526.354-3.2.653-4.792.356-1.892,1.375-3.592,1.941-5.434s.567-4.083-.825-5.42c-1.769-1.7-4.622-1.051-7.08-.973s-5.615-1.667-4.8-3.977a4.22,4.22,0,0,1,1.691-1.868,35.3,35.3,0,0,1,21.486-6.471c1.428-2.816-1.867-6.068-5.033-6.141s-6.023,1.717-8.967,2.883a18.444,18.444,0,0,1-12.947.539c-2.266-.825-4.307-2.192-6.6-2.942-.624-.2-1.262-.357-1.9-.5a98.933,98.933,0,0,0-13.173,10.629A20.907,20.907,0,0,1,2182.677-1088.76Z" transform="translate(-2174.619 1117.348)" fill="none" stroke="#fff" stroke-miterlimit="10" stroke-width="1"/>
        </g>
        <path id="패스_389" data-name="패스 389" d="M2265.294-1051.353l8.971,2.92c3.619,1.178,8.047,3.622,7.326,7.343-.346,1.784-1.844,3.079-2.885,4.572a9.954,9.954,0,0,0-1.328,8.495c.521,1.692,1.514,3.337,1.31,5.094-.326,2.8-3.342,4.289-5.688,5.861-4.707,3.154-7.751,8.222-12.022,11.94s-11.107,5.847-15.448,2.209c-4.23-3.544-3.526-10.03-3.538-15.535a6.627,6.627,0,0,0-.846-3.811c-1.574-2.278-5.032-2.038-7.413-3.463-3.16-1.893-3.713-6.145-3.928-9.811-.278-4.742-.364-10.052,2.863-13.552,1-1.087,2.287-1.943,3.025-3.222,1.474-2.555.3-5.828.992-8.692,1.049-4.317,7.064-6.479,10.642-3.826a12.628,12.628,0,0,0,1.871,1.374c1.691.824,3.7.076,5.579.176a6.311,6.311,0,0,1,5.765,6.339C2260.4-1054.051,2262.53-1052.252,2265.294-1051.353Z" transform="translate(-2011.268 1144.496)" fill="none" stroke="#fff" stroke-linejoin="round" stroke-width="1"/>
        <g id="그룹_1288" data-name="그룹 1288" transform="translate(251.112)">
          <line id="선_568" data-name="선 568" x1="1.571" y2="1.564" transform="translate(4.691)" fill="none" stroke="#fff" stroke-linecap="round" stroke-miterlimit="10" stroke-width="0.5"/>
          <line id="선_569" data-name="선 569" x1="1.571" y2="1.564" transform="translate(0 4.669)" fill="none" stroke="#fff" stroke-linecap="round" stroke-miterlimit="10" stroke-width="0.5"/>
          <line id="선_570" data-name="선 570" x1="1.571" y1="1.564" transform="translate(4.691 4.669)" fill="none" stroke="#fff" stroke-linecap="round" stroke-miterlimit="10" stroke-width="0.5"/>
          <line id="선_571" data-name="선 571" x1="1.571" y1="1.564" fill="none" stroke="#fff" stroke-linecap="round" stroke-miterlimit="10" stroke-width="0.5"/>
        </g>
        <g id="그룹_1289" data-name="그룹 1289" transform="translate(271.836 13.237)">
          <line id="선_572" data-name="선 572" x1="1.571" y2="1.564" transform="translate(4.691)" fill="none" stroke="#fff" stroke-linecap="round" stroke-miterlimit="10" stroke-width="0.5"/>
          <line id="선_573" data-name="선 573" x1="1.571" y2="1.564" transform="translate(0 4.669)" fill="none" stroke="#fff" stroke-linecap="round" stroke-miterlimit="10" stroke-width="0.5"/>
          <line id="선_574" data-name="선 574" x1="1.571" y1="1.564" transform="translate(4.691 4.669)" fill="none" stroke="#fff" stroke-linecap="round" stroke-miterlimit="10" stroke-width="0.5"/>
          <line id="선_575" data-name="선 575" x1="1.571" y1="1.564" fill="none" stroke="#fff" stroke-linecap="round" stroke-miterlimit="10" stroke-width="0.5"/>
        </g>
        <path id="패스_390" data-name="패스 390" d="M2027.671-1133.252l14.49,8.971,10.912-4.689-3.109-1.925a1.791,1.791,0,0,1-.58-2.475,1.811,1.811,0,0,1,2.486-.577l5.238,3.243,7.522-3.233-2.511-1.555a1.792,1.792,0,0,1-.579-2.475,1.811,1.811,0,0,1,2.486-.577l4.639,2.873,7.772-3.34,6.884,3.181-21.016,13.208-5.359,8.576,18.7,12.66,11.306-4.623,3.328,2.061-10.148,8.854-3.491,12.976-3.329-2.061-.833-12.139-19.677-11.1-5.358,8.575-2.611,24.6-5.91-4.74-.426-8.415-4.64-2.872a1.793,1.793,0,0,1-.579-2.476,1.81,1.81,0,0,1,2.486-.576l2.511,1.555-.413-8.145-5.238-3.244a1.793,1.793,0,0,1-.58-2.475,1.812,1.812,0,0,1,2.487-.577l3.109,1.926-.6-11.816-14.49-8.971s-5.361-3.154-2.729-7.366S2027.671-1133.252,2027.671-1133.252Z" transform="translate(-2019.1 1142.128)" fill="none" stroke="#fff" stroke-linecap="round" stroke-linejoin="round" stroke-width="1"/>
        <path id="패스_391" data-name="패스 391" d="M2082.218-1094.042c5.358,4.344,11.765,6.611,18.131,8.419a161.248,161.248,0,0,0,48.879,6.087c11.09-.336,23.619-1.268,31.7,7.461a24.463,24.463,0,0,1,5.71,19.9" transform="translate(-2016.752 1143.586)" fill="none" stroke="#fff" stroke-linecap="round" stroke-miterlimit="10" stroke-width="0.5" stroke-dasharray="3"/>
      </g>
    </g>
  </g>
</svg>
