<svg xmlns="http://www.w3.org/2000/svg" width="538" height="120" viewBox="0 0 538 120">
    <defs>
        <clipPath id="e8v76a2pma">
            <path data-name="사각형 511" transform="translate(163 101)" style="fill:#fff" d="M0 0h374v120H0z"/>
        </clipPath>
    </defs>
    <path data-name="사각형 359" style="fill:#81b29a" d="M0 0h538v120H0z"/>
    <g data-name="마스크 그룹 110" transform="translate(1 -101)" style="clip-path:url(#e8v76a2pma)">
        <g data-name="그룹 1271">
            <g data-name="그룹 1267">
                <path data-name="패스 326" d="M2087.416-1293.677a5.722 5.722 0 0 0 3.4-4.37c.323-2.809-1.871-5.453-5.146-6.562 1.905-1.507 2.931-3.578 2.512-5.6-.522-2.514-3.13-4.206-6.352-4.428a3.831 3.831 0 0 0 .029-1.664c-.609-2.934-4.622-4.581-8.964-3.68-.318.066-.627.148-.93.237-1.622-2.816-6.068-3.673-10.282-1.876-.067.029-.129.063-.2.092a5.524 5.524 0 0 0-2.124-4.517c-1.729-1.238-4.106-1.139-6.338.015.374-2.484-.3-4.767-2.027-6.005-1.763-1.262-4.2-1.139-6.474.083a4.741 4.741 0 0 0-1.672-4.9 4.919 4.919 0 0 0-5.892.459c-2.747-3.334-7.021-4.4-9.7-2.345a4.973 4.973 0 0 0-1.028 1.078 7.7 7.7 0 0 0-7.4-.806 7.518 7.518 0 0 0-3.526 3.107c-2.483-1.6-5.381-1.808-7.389-.273a6.054 6.054 0 0 0-1.98 5.955c-2.5-.751-5.014-.314-6.539 1.4a6.069 6.069 0 0 0-.8 6.27c-4.054-.145-7.487 2.1-7.851 5.27a5.291 5.291 0 0 0 1.215 3.9 5.468 5.468 0 0 0-3.489 2.9 5.933 5.933 0 0 0 2.214 7.272 6.452 6.452 0 0 0-.341.437 6.055 6.055 0 0 0-1.119 4.405 5.581 5.581 0 0 0-2.965 4.133c-.389 3.382 2.867 6.535 7.272 7.041a10.317 10.317 0 0 0 1.75.05h0l88.1 4.554c.066.009.131.023.2.03a10.477 10.477 0 0 0 1.565.061h.012c3.72-.138 6.761-2.3 7.1-5.268.319-2.719-1.732-5.291-4.841-6.455z" style="stroke-linecap:round;fill:none;stroke:#fff;stroke-miterlimit:10" transform="translate(-1754.813 1510.361)"/>
                <path data-name="패스 327" d="M2048.761-1297.091s-1.479-5.127 6.8-3.746c0 0 3.056-6.191 9.268-.236 0 0 4.24-4.892 8.479.038" style="stroke-linecap:round;fill:none;stroke:#fff;stroke-miterlimit:10" transform="translate(-1754.813 1510.361)"/>
                <path data-name="패스 328" d="M2070.086-1290.8s4.536-3.353 6.015 1.183c0 0 5.324-.379 3.155 4.3" style="stroke-linecap:round;fill:none;stroke:#fff;stroke-miterlimit:10" transform="translate(-1754.813 1510.361)"/>
                <path data-name="패스 329" d="M2031.576-1291.524s-3.231-6.7-10.145-2.662c0 0-3.856-5.423-6.124 1.282" style="stroke-linecap:round;fill:none;stroke:#fff;stroke-miterlimit:10" transform="translate(-1754.813 1510.361)"/>
                <path data-name="패스 330" d="M2024.94-1306.389s-4.772-6.533-10.392-1.048c0 0-2.958-6.137-8.874-.573" style="stroke-linecap:round;fill:none;stroke:#fff;stroke-miterlimit:10" transform="translate(-1754.813 1510.361)"/>
                <path data-name="패스 331" d="M2034.758-1315.782s5.719-.394 8.381 3.648c0 0 4.338-4.25 8.381-1.829 0 0 7-4.087 9.466 1.829" style="stroke-linecap:round;fill:none;stroke:#fff;stroke-miterlimit:10" transform="translate(-1754.813 1510.361)"/>
                <path data-name="패스 332" d="M2003.9-1322.856s3.747-4.239 6.113.493c0 0 4.24-3.253 3.845 1.381" style="stroke-linecap:round;fill:none;stroke:#fff;stroke-miterlimit:10" transform="translate(-1754.813 1510.361)"/>
                <path data-name="패스 333" d="M2021.369-1332.06s6.975-2.663 8.454 3.352c0 0 7.592-.986 3.944 5.916" style="stroke-linecap:round;fill:none;stroke:#fff;stroke-miterlimit:10" transform="translate(-1754.813 1510.361)"/>
            </g>
            <g data-name="그룹 1268">
                <path data-name="패스 334" d="M2108.285-1358.1a6.944 6.944 0 0 0-6.09.773 3.863 3.863 0 0 1-2.131 1.007 4.694 4.694 0 0 1-1.172-.315 4.145 4.145 0 0 0-4.423 1.45c-.357.481-.6 1.037-.979 1.506-.791.99-2.059 1.485-2.931 2.4a4.224 4.224 0 0 0-.964 4.028 5.471 5.471 0 0 1 .4 1.537c-.006 1.495-1.791 2.179-3.006 3.05a5.469 5.469 0 0 0-2.186 5.068 5.468 5.468 0 0 0 3.455 4.3 8.008 8.008 0 0 1 1.855.728 8.32 8.32 0 0 1 1.365 1.507 8.858 8.858 0 0 0 4.453 2.363 11.1 11.1 0 0 0 4.951.453 4.87 4.87 0 0 0 3.78-2.937c1.319 2.135 2.751 4.376 5 5.489 2.007.994 4.354.93 6.593.844 2.774-.107 5.717-.268 8-1.851a8.013 8.013 0 0 0 7.282 2.541 8.011 8.011 0 0 0 5.947-4.91c1.806 1.194 4.274.179 5.905-1.244a6.843 6.843 0 0 0 2.1-2.85 3.487 3.487 0 0 0-.516-3.379 4.5 4.5 0 0 0 2.532-4.718 4.5 4.5 0 0 0-3.936-3.629 4.836 4.836 0 0 0 1.134-4.836 4.835 4.835 0 0 0-3.814-3.181 5.588 5.588 0 0 0-2.63-6.082 5.588 5.588 0 0 0-6.551 1 7.023 7.023 0 0 0-6.38-3.516 7.04 7.04 0 0 0-5.323 3.05c-.45.662-.729 2.161-1.558 2.416-.87.267-1.628-.416-2.474-.428-1.337-.018-1.606 1.131-2.7 1.494-1.873.63-3.327-2.542-4.988-3.128z" style="stroke-linecap:round;fill:none;stroke:#fff;stroke-miterlimit:10" transform="translate(-1754.813 1510.361)"/>
                <path data-name="패스 335" d="M2125.929-1344.881s-6.737-1.736-5.945 5.316c0 0-2.832.277-.938 4.117" style="stroke-linecap:round;fill:none;stroke:#fff;stroke-miterlimit:10" transform="translate(-1754.813 1510.361)"/>
                <path data-name="패스 336" d="M2126.411-1337.89s3.9-3.934 7.554.294c0 0 4.163-1.637 4.88 1.381" style="stroke-linecap:round;fill:none;stroke:#fff;stroke-miterlimit:10" transform="translate(-1754.813 1510.361)"/>
                <path data-name="패스 337" d="M2121.316-1353.522s3.321-4.2 7.545-.52c0 0 6.866-2.306 7.079 5.213" style="stroke-linecap:round;fill:none;stroke:#fff;stroke-miterlimit:10" transform="translate(-1754.813 1510.361)"/>
                <path data-name="패스 338" d="M2097.776-1351.595s1.6-3.368 4.762-.328" style="stroke-linecap:round;fill:none;stroke:#fff;stroke-miterlimit:10" transform="translate(-1754.813 1510.361)"/>
                <path data-name="패스 339" d="M2104.337-1342.07s1.115-3.029 4.989-1.463c0 0-.956-3.53 4.922-2.443" style="stroke-linecap:round;fill:none;stroke:#fff;stroke-miterlimit:10" transform="translate(-1754.813 1510.361)"/>
                <path data-name="패스 340" d="M2091.133-1335.764s3.864-4.44 6.034.449" style="stroke-linecap:round;fill:none;stroke:#fff;stroke-miterlimit:10" transform="translate(-1754.813 1510.361)"/>
            </g>
            <g data-name="그룹 1269">
                <path data-name="패스 341" d="m2326.9-1251.769-59.6 20.612a8 8 0 0 1-10.257-5.2l-40.327-130.288a8 8 0 0 1 5.027-9.926l51.138-17.687a8 8 0 0 1 10.086 4.7l48.785 127.363a8 8 0 0 1-4.852 10.426z" style="fill:none;stroke:#fff;stroke-miterlimit:10" transform="translate(-1754.813 1510.361)"/>
                <path data-name="패스 342" d="m2234.837-1381.095-1.345-3.89a3.714 3.714 0 0 1 2.3-4.725l17.931-6.2a3.713 3.713 0 0 1 4.724 2.3l1.346 3.89" style="fill:none;stroke:#fff;stroke-miterlimit:10" transform="translate(-1754.813 1510.361)"/>
                <path data-name="패스 343" d="m2309.575-1245.778 1.346 3.891a3.715 3.715 0 0 1-2.3 4.724l-17.932 6.2a3.715 3.715 0 0 1-4.724-2.3l-1.346-3.891" style="fill:none;stroke:#fff;stroke-miterlimit:10" transform="translate(-1754.813 1510.361)"/>
                <path data-name="선 393" transform="translate(466.931 133.795)" style="fill:none;stroke:#fff;stroke-miterlimit:10" d="m0 0 68.058 4.854"/>
                <path data-name="선 394" transform="translate(477.083 130.283)" style="fill:none;stroke:#fff;stroke-miterlimit:10" d="m0 0 56.238 4.011"/>
                <path data-name="선 395" transform="translate(487.51 126.677)" style="fill:none;stroke:#fff;stroke-miterlimit:10" d="m0 0 44.098 3.145"/>
                <path data-name="선 396" transform="translate(498 123.049)" style="fill:none;stroke:#fff;stroke-miterlimit:10" d="m0 0 31.885 2.274"/>
                <path data-name="선 397" transform="translate(508.511 119.414)" style="fill:none;stroke:#fff;stroke-miterlimit:10" d="m0 0 19.644 1.393"/>
                <path data-name="선 398" transform="translate(485.516 156.985)" style="fill:none;stroke:#fff;stroke-miterlimit:10" d="m0 0 58.084 4.143"/>
                <path data-name="선 399" transform="translate(489.841 153.058)" style="fill:none;stroke:#fff;stroke-miterlimit:10" d="m0 0 52.091 3.716"/>
                <path data-name="선 400" transform="translate(494.283 149.025)" style="fill:none;stroke:#fff;stroke-miterlimit:10" d="m0 0 45.935 3.276"/>
                <path data-name="선 401" transform="translate(499.44 145.016)" style="fill:none;stroke:#fff;stroke-miterlimit:10" d="m0 0 39.055 2.786"/>
                <path data-name="선 402" transform="translate(503.224 140.907)" style="fill:none;stroke:#fff;stroke-miterlimit:10" d="m0 0 33.541 2.378"/>
                <path data-name="선 403" transform="translate(500.014 180.449)" style="fill:none;stroke:#fff;stroke-miterlimit:10" d="m0 0 52.418 3.739"/>
                <path data-name="선 404" transform="translate(504.34 176.522)" style="fill:none;stroke:#fff;stroke-miterlimit:10" d="m0 0 46.425 3.311"/>
                <path data-name="선 405" transform="translate(509.281 172.524)" style="fill:none;stroke:#fff;stroke-miterlimit:10" d="m0 0 39.771 2.837"/>
                <path data-name="선 406" transform="translate(513.251 168.431)" style="fill:none;stroke:#fff;stroke-miterlimit:10" d="m0 0 34.077 2.431"/>
                <path data-name="선 407" transform="translate(517.726 164.368)" style="fill:none;stroke:#fff;stroke-miterlimit:10" d="m0 0 27.872 1.976"/>
                <path data-name="선 408" transform="translate(507.679 202.597)" style="fill:none;stroke:#fff;stroke-miterlimit:10" d="m0 0 53.332 3.804"/>
                <path data-name="선 409" transform="translate(512.004 198.67)" style="fill:none;stroke:#fff;stroke-miterlimit:10" d="m0 0 47.339 3.377"/>
                <path data-name="선 410" transform="translate(516.446 194.637)" style="fill:none;stroke:#fff;stroke-miterlimit:10" d="m0 0 41.183 2.938"/>
                <path data-name="선 411" transform="translate(520.915 190.579)" style="fill:none;stroke:#fff;stroke-miterlimit:10" d="m0 0 34.991 2.496"/>
                <path data-name="선 412" transform="translate(525.39 186.517)" style="fill:none;stroke:#fff;stroke-miterlimit:10" d="m0 0 28.786 2.041"/>
                <path data-name="선 413" transform="translate(521.886 224.868)" style="fill:none;stroke:#fff;stroke-miterlimit:10" d="m0 0 47.424 3.383"/>
                <path data-name="선 414" transform="translate(526.211 220.941)" style="fill:none;stroke:#fff;stroke-miterlimit:10" d="m0 0 41.431 2.955"/>
                <path data-name="선 415" transform="translate(530.654 216.907)" style="fill:none;stroke:#fff;stroke-miterlimit:10" d="m0 0 35.276 2.516"/>
                <path data-name="선 416" transform="translate(535.123 212.85)" style="fill:none;stroke:#fff;stroke-miterlimit:10" d="m0 0 29.083 2.074"/>
                <path data-name="선 417" transform="translate(539.6 208.785)" style="fill:none;stroke:#fff;stroke-miterlimit:10" d="m0 0 22.875 1.622"/>
                <path data-name="선 418" transform="translate(529.518 246.934)" style="fill:none;stroke:#fff;stroke-miterlimit:10" d="m0 0 47.924 3.418"/>
                <path data-name="선 419" transform="translate(533.843 243.007)" style="fill:none;stroke:#fff;stroke-miterlimit:10" d="m0 0 42.274 3.015"/>
                <path data-name="선 420" transform="translate(538.286 238.974)" style="fill:none;stroke:#fff;stroke-miterlimit:10" d="m0 0 36.119 2.576"/>
                <path data-name="선 421" transform="translate(542.755 234.916)" style="fill:none;stroke:#fff;stroke-miterlimit:10" d="m0 0 29.927 2.135"/>
                <path data-name="선 422" transform="translate(547.232 230.851)" style="fill:none;stroke:#fff;stroke-miterlimit:10" d="m0 0 23.718 1.682"/>
                <path data-name="선 423" transform="translate(551.081 256.848)" style="fill:none;stroke:#fff;stroke-miterlimit:10" d="m0 0 21.594 1.54"/>
                <path data-name="선 424" transform="translate(555.558 252.782)" style="fill:none;stroke:#fff;stroke-miterlimit:10" d="m0 0 21.216 1.504"/>
                <path data-name="선 425" transform="translate(470.288 136.624)" style="fill:none;stroke:#fff;stroke-miterlimit:10" d="M37.653 0 0 34.187"/>
                <path data-name="선 426" transform="translate(468.91 136.264)" style="fill:none;stroke:#fff;stroke-miterlimit:10" d="M33.143 0 0 30.092"/>
                <path data-name="선 427" transform="translate(467.494 135.87)" style="fill:none;stroke:#fff;stroke-miterlimit:10" d="M28.538 0 0 25.91"/>
                <path data-name="선 428" transform="translate(466.125 135.33)" style="fill:none;stroke:#fff;stroke-miterlimit:10" d="M24.008 0 0 21.797"/>
                <path data-name="선 429" transform="translate(464.641 135.012)" style="fill:none;stroke:#fff;stroke-miterlimit:10" d="M19.35 0 0 17.554"/>
                <path data-name="선 430" transform="translate(462.999 134.557)" style="fill:none;stroke:#fff;stroke-miterlimit:10" d="M14.617 0 0 13.26"/>
                <path data-name="선 431" transform="translate(479.138 159.653)" style="fill:none;stroke:#fff;stroke-miterlimit:10" d="M43.781 0 0 39.75"/>
                <path data-name="선 432" transform="translate(477.76 159.237)" style="fill:none;stroke:#fff;stroke-miterlimit:10" d="M39.332 0 0 35.711"/>
                <path data-name="선 433" transform="translate(476.344 158.81)" style="fill:none;stroke:#fff;stroke-miterlimit:10" d="M34.764 0 0 31.563"/>
                <path data-name="선 434" transform="translate(474.919 158.246)" style="fill:none;stroke:#fff;stroke-miterlimit:10" d="M30.315 0 0 27.524"/>
                <path data-name="선 435" transform="translate(473.491 157.952)" style="fill:none;stroke:#fff;stroke-miterlimit:10" d="M25.58 0 0 23.206"/>
                <path data-name="선 436" transform="translate(486.004 182.527)" style="fill:none;stroke:#fff;stroke-miterlimit:10" d="M43.781 0 0 39.75"/>
                <path data-name="선 437" transform="translate(484.625 182.111)" style="fill:none;stroke:#fff;stroke-miterlimit:10" d="M39.332 0 0 35.711"/>
                <path data-name="선 438" transform="translate(483.209 181.684)" style="fill:none;stroke:#fff;stroke-miterlimit:10" d="M34.764 0 0 31.563"/>
                <path data-name="선 439" transform="translate(481.785 181.12)" style="fill:none;stroke:#fff;stroke-miterlimit:10" d="M30.315 0 0 27.524"/>
                <path data-name="선 440" transform="translate(480.357 180.825)" style="fill:none;stroke:#fff;stroke-miterlimit:10" d="M25.58 0 0 23.206"/>
                <path data-name="선 441" transform="translate(471.983 157.497)" style="fill:none;stroke:#fff;stroke-miterlimit:10" d="M20.712 0 0 18.789"/>
                <path data-name="선 442" transform="translate(494.669 205.159)" style="fill:none;stroke:#fff;stroke-miterlimit:10" d="M48.925 0 0 44.42"/>
                <path data-name="선 443" transform="translate(493.291 204.743)" style="fill:none;stroke:#fff;stroke-miterlimit:10" d="M44.476 0 0 40.381"/>
                <path data-name="선 444" transform="translate(491.874 204.316)" style="fill:none;stroke:#fff;stroke-miterlimit:10" d="M39.907 0 0 36.233"/>
                <path data-name="선 445" transform="translate(490.45 203.887)" style="fill:none;stroke:#fff;stroke-miterlimit:10" d="M35.311 0 0 32.06"/>
                <path data-name="선 446" transform="translate(489.022 203.458)" style="fill:none;stroke:#fff;stroke-miterlimit:10" d="M30.727 0 0 27.875"/>
                <path data-name="선 447" transform="translate(501.702 226.988)" style="fill:none;stroke:#fff;stroke-miterlimit:10" d="M49.908 0 0 45.313"/>
                <path data-name="선 448" transform="translate(500.323 226.572)" style="fill:none;stroke:#fff;stroke-miterlimit:10" d="M45.46 0 0 41.274"/>
                <path data-name="선 449" transform="translate(498.907 226.145)" style="fill:none;stroke:#fff;stroke-miterlimit:10" d="M40.891 0 0 37.126"/>
                <path data-name="선 450" transform="translate(497.483 225.716)" style="fill:none;stroke:#fff;stroke-miterlimit:10" d="M36.295 0 0 32.953"/>
                <path data-name="선 451" transform="translate(496.055 225.287)" style="fill:none;stroke:#fff;stroke-miterlimit:10" d="M31.711 0 0 28.768"/>
                <path data-name="선 452" transform="translate(534.723 249.205)" style="fill:none;stroke:#fff;stroke-miterlimit:10" d="M24.571 0 0 22.309"/>
                <path data-name="선 453" transform="translate(524.571 248.789)" style="fill:none;stroke:#fff;stroke-miterlimit:10" d="M28.896 0 0 26.236"/>
                <path data-name="선 454" transform="translate(514.144 248.362)" style="fill:none;stroke:#fff;stroke-miterlimit:10" d="M33.339 0 0 30.269"/>
                <path data-name="선 455" transform="translate(507.087 247.933)" style="fill:none;stroke:#fff;stroke-miterlimit:10" d="M34.374 0 0 31.21"/>
                <path data-name="선 456" transform="translate(503.739 247.504)" style="fill:none;stroke:#fff;stroke-miterlimit:10" d="M31.711 0 0 28.768"/>
                <path data-name="선 457" transform="translate(487.514 203.003)" style="fill:none;stroke:#fff;stroke-miterlimit:10" d="M25.859 0 0 23.459"/>
            </g>
            <g data-name="그룹 1270">
                <path data-name="패스 344" d="m2005.116-1375.434-42.668-17.475a5.848 5.848 0 0 1-3.121-7.806l40.8-90.993a5.849 5.849 0 0 1 7.554-3.02l36.613 14.994a5.85 5.85 0 0 1 3.266 7.451l-34.746 93.474a5.849 5.849 0 0 1-7.698 3.375z" style="fill:none;stroke:#fff;stroke-miterlimit:10" transform="translate(-1754.813 1510.361)"/>
                <path data-name="패스 345" d="m2017.056-1490.889 1.141-2.785a2.716 2.716 0 0 1 3.543-1.484l12.837 5.257a2.716 2.716 0 0 1 1.484 3.543l-1.14 2.785" style="fill:none;stroke:#fff;stroke-miterlimit:10" transform="translate(-1754.813 1510.361)"/>
                <path data-name="패스 346" d="m1992.714-1380.513-1.141 2.785a2.715 2.715 0 0 1-3.542 1.484l-12.838-5.258a2.715 2.715 0 0 1-1.484-3.542l1.141-2.785" style="fill:none;stroke:#fff;stroke-miterlimit:10" transform="translate(-1754.813 1510.361)"/>
                <path data-name="선 458" transform="translate(252.869 15.633)" style="fill:none;stroke:#fff;stroke-miterlimit:10" d="m0 0 35.011 35.54"/>
                <path data-name="선 459" transform="translate(260.138 18.61)" style="fill:none;stroke:#fff;stroke-miterlimit:10" d="m0 0 28.93 29.368"/>
                <path data-name="선 460" transform="translate(267.603 21.667)" style="fill:none;stroke:#fff;stroke-miterlimit:10" d="m0 0 22.685 23.028"/>
                <path data-name="선 461" transform="translate(275.113 24.743)" style="fill:none;stroke:#fff;stroke-miterlimit:10" d="m0 0 16.403 16.65"/>
                <path data-name="선 462" transform="translate(282.638 27.825)" style="fill:none;stroke:#fff;stroke-miterlimit:10" d="m0 0 10.109 10.254"/>
                <path data-name="선 463" transform="translate(251.868 37.339)" style="fill:none;stroke:#fff;stroke-miterlimit:10" d="m0 0 29.88 30.331"/>
                <path data-name="선 464" transform="translate(256.139 37.273)" style="fill:none;stroke:#fff;stroke-miterlimit:10" d="m0 0 26.797 27.202"/>
                <path data-name="선 465" transform="translate(260.526 37.205)" style="fill:none;stroke:#fff;stroke-miterlimit:10" d="m0 0 23.63 23.988"/>
                <path data-name="선 466" transform="translate(265.292 37.496)" style="fill:none;stroke:#fff;stroke-miterlimit:10" d="m0 0 20.091 20.395"/>
                <path data-name="선 467" transform="translate(269.355 37.068)" style="fill:none;stroke:#fff;stroke-miterlimit:10" d="m0 0 17.261 17.507"/>
                <path data-name="선 468" transform="translate(248.492 57.222)" style="fill:none;stroke:#fff;stroke-miterlimit:10" d="m0 0 26.965 27.373"/>
                <path data-name="선 469" transform="translate(252.763 57.155)" style="fill:none;stroke:#fff;stroke-miterlimit:10" d="m0 0 23.882 24.243"/>
                <path data-name="선 470" transform="translate(257.406 57.348)" style="fill:none;stroke:#fff;stroke-miterlimit:10" d="m0 0 20.459 20.768"/>
                <path data-name="선 471" transform="translate(261.562 57.019)" style="fill:none;stroke:#fff;stroke-miterlimit:10" d="m0 0 17.53 17.795"/>
                <path data-name="선 472" transform="translate(265.981 56.951)" style="fill:none;stroke:#fff;stroke-miterlimit:10" d="m0 0 14.344 14.548"/>
                <path data-name="선 473" transform="translate(242 73.081)" style="fill:none;stroke:#fff;stroke-miterlimit:10" d="m0 0 27.435 27.85"/>
                <path data-name="선 474" transform="translate(246.271 73.015)" style="fill:none;stroke:#fff;stroke-miterlimit:10" d="m0 0 24.352 24.72"/>
                <path data-name="선 475" transform="translate(250.658 72.947)" style="fill:none;stroke:#fff;stroke-miterlimit:10" d="m0 0 21.186 21.506"/>
                <path data-name="선 476" transform="translate(255.07 72.878)" style="fill:none;stroke:#fff;stroke-miterlimit:10" d="m0 0 18 18.272"/>
                <path data-name="선 477" transform="translate(259.489 72.81)" style="fill:none;stroke:#fff;stroke-miterlimit:10" d="m0 0 14.814 15.026"/>
                <path data-name="선 478" transform="translate(239.04 92.168)" style="fill:none;stroke:#fff;stroke-miterlimit:10" d="m0 0 24.396 24.765"/>
                <path data-name="선 479" transform="translate(243.311 92.102)" style="fill:none;stroke:#fff;stroke-miterlimit:10" d="m0 0 21.313 21.635"/>
                <path data-name="선 480" transform="translate(247.698 92.034)" style="fill:none;stroke:#fff;stroke-miterlimit:10" d="m0 0 18.147 18.421"/>
                <path data-name="선 481" transform="translate(252.111 91.965)" style="fill:none;stroke:#fff;stroke-miterlimit:10" d="m0 0 14.961 15.187"/>
                <path data-name="선 482" transform="translate(256.532 91.897)" style="fill:none;stroke:#fff;stroke-miterlimit:10" d="m0 0 11.772 11.94"/>
                <path data-name="선 483" transform="translate(232.57 107.966)" style="fill:none;stroke:#fff;stroke-miterlimit:10" d="m0 0 24.653 25.026"/>
                <path data-name="선 484" transform="translate(236.841 107.9)" style="fill:none;stroke:#fff;stroke-miterlimit:10" d="m0 0 21.747 22.076"/>
                <path data-name="선 485" transform="translate(241.228 107.832)" style="fill:none;stroke:#fff;stroke-miterlimit:10" d="m0 0 18.581 18.861"/>
                <path data-name="선 486" transform="translate(245.64 107.764)" style="fill:none;stroke:#fff;stroke-miterlimit:10" d="m0 0 15.395 15.628"/>
                <path data-name="선 487" transform="translate(250.062 107.695)" style="fill:none;stroke:#fff;stroke-miterlimit:10" d="m0 0 12.206 12.38"/>
                <path data-name="선 488" transform="translate(239.617 123.823)" style="fill:none;stroke:#fff;stroke-miterlimit:10" d="m0 0 11.109 11.276"/>
                <path data-name="선 489" transform="translate(244.038 123.755)" style="fill:none;stroke:#fff;stroke-miterlimit:10" d="m0 0 10.918 11.074"/>
                <path data-name="선 490" transform="translate(236.832 36.996)" style="fill:none;stroke:#fff;stroke-miterlimit:10" d="M37.181 0 0 .576"/>
                <path data-name="선 491" transform="translate(238.227 33.954)" style="fill:none;stroke:#fff;stroke-miterlimit:10" d="M32.728 0 0 .507"/>
                <path data-name="선 492" transform="translate(239.659 30.829)" style="fill:none;stroke:#fff;stroke-miterlimit:10" d="M28.18 0 0 .437"/>
                <path data-name="선 493" transform="translate(241.156 27.683)" style="fill:none;stroke:#fff;stroke-miterlimit:10" d="M23.707 0 0 .367"/>
                <path data-name="선 494" transform="translate(242.545 24.542)" style="fill:none;stroke:#fff;stroke-miterlimit:10" d="M19.1 0 0 .288"/>
                <path data-name="선 495" transform="translate(243.937 21.213)" style="fill:none;stroke:#fff;stroke-miterlimit:10" d="M14.428 0 0 .218"/>
                <path data-name="선 496" transform="translate(227.878 56.871)" style="fill:none;stroke:#fff;stroke-miterlimit:10" d="M43.232 0 0 .67"/>
                <path data-name="선 497" transform="translate(229.273 53.828)" style="fill:none;stroke:#fff;stroke-miterlimit:10" d="M38.839 0 0 .602"/>
                <path data-name="선 498" transform="translate(230.705 50.703)" style="fill:none;stroke:#fff;stroke-miterlimit:10" d="M34.328 0 0 .532"/>
                <path data-name="선 499" transform="translate(232.147 47.557)" style="fill:none;stroke:#fff;stroke-miterlimit:10" d="M29.935 0 0 .464"/>
                <path data-name="선 500" transform="translate(233.591 44.418)" style="fill:none;stroke:#fff;stroke-miterlimit:10" d="M25.25 0 0 .381"/>
                <path data-name="선 501" transform="translate(220.597 72.743)" style="fill:none;stroke:#fff;stroke-miterlimit:10" d="M43.232 0 0 .67"/>
                <path data-name="선 502" transform="translate(221.992 69.7)" style="fill:none;stroke:#fff;stroke-miterlimit:10" d="M38.839 0 0 .602"/>
                <path data-name="선 503" transform="translate(223.425 66.575)" style="fill:none;stroke:#fff;stroke-miterlimit:10" d="M34.328 0 0 .532"/>
                <path data-name="선 504" transform="translate(224.866 63.428)" style="fill:none;stroke:#fff;stroke-miterlimit:10" d="M29.935 0 0 .464"/>
                <path data-name="선 505" transform="translate(226.311 60.289)" style="fill:none;stroke:#fff;stroke-miterlimit:10" d="M25.25 0 0 .381"/>
                <path data-name="선 506" transform="translate(235.117 41.088)" style="fill:none;stroke:#fff;stroke-miterlimit:10" d="M20.445 0 0 .308"/>
                <path data-name="선 507" transform="translate(212.165 91.836)" style="fill:none;stroke:#fff;stroke-miterlimit:10" d="M48.311 0 0 .748"/>
                <path data-name="선 508" transform="translate(213.56 88.793)" style="fill:none;stroke:#fff;stroke-miterlimit:10" d="M43.918 0 0 .68"/>
                <path data-name="선 509" transform="translate(214.992 85.667)" style="fill:none;stroke:#fff;stroke-miterlimit:10" d="M39.407 0 0 .611"/>
                <path data-name="선 510" transform="translate(216.433 82.523)" style="fill:none;stroke:#fff;stroke-miterlimit:10" d="M34.868 0 0 .54"/>
                <path data-name="선 511" transform="translate(217.878 79.384)" style="fill:none;stroke:#fff;stroke-miterlimit:10" d="M30.331 0 0 .457"/>
                <path data-name="선 512" transform="translate(205.049 107.69)" style="fill:none;stroke:#fff;stroke-miterlimit:10" d="M49.282 0 0 .763"/>
                <path data-name="선 513" transform="translate(206.444 104.647)" style="fill:none;stroke:#fff;stroke-miterlimit:10" d="M44.89 0 0 .695"/>
                <path data-name="선 514" transform="translate(207.877 101.521)" style="fill:none;stroke:#fff;stroke-miterlimit:10" d="M40.378 0 0 .626"/>
                <path data-name="선 515" transform="translate(209.318 98.377)" style="fill:none;stroke:#fff;stroke-miterlimit:10" d="M35.84 0 0 .555"/>
                <path data-name="선 516" transform="translate(210.763 95.238)" style="fill:none;stroke:#fff;stroke-miterlimit:10" d="M31.302 0 0 .472"/>
                <path data-name="선 517" transform="translate(223.554 123.596)" style="fill:none;stroke:#fff;stroke-miterlimit:10" d="M24.263 0 0 .376"/>
                <path data-name="선 518" transform="translate(216.285 120.553)" style="fill:none;stroke:#fff;stroke-miterlimit:10" d="M28.534 0 0 .442"/>
                <path data-name="선 519" transform="translate(208.82 117.428)" style="fill:none;stroke:#fff;stroke-miterlimit:10" d="M32.921 0 0 .51"/>
                <path data-name="선 520" transform="translate(204.7 114.284)" style="fill:none;stroke:#fff;stroke-miterlimit:10" d="M33.943 0 0 .526"/>
                <path data-name="선 521" transform="translate(204.249 111.145)" style="fill:none;stroke:#fff;stroke-miterlimit:10" d="M31.302 0 0 .472"/>
                <path data-name="선 522" transform="translate(219.404 76.054)" style="fill:none;stroke:#fff;stroke-miterlimit:10" d="M25.525 0 0 .385"/>
            </g>
            <path data-name="패스 347" d="M2145.311-1386.541c11.518.307 23.384 2.336 32.974 8.725a41.167 41.167 0 0 1 17.5 26.8c.967 5.509.788 11.157 1.513 16.7s2.524 11.244 6.63 15.042a21.683 21.683 0 0 0 10.944 5 34.084 34.084 0 0 0 16.963-1.246" style="stroke-linecap:round;fill:none;stroke:#fff;stroke-miterlimit:10" transform="translate(-1754.813 1510.361)"/>
        </g>
    </g>
</svg>
