<svg id="bg_material" xmlns="http://www.w3.org/2000/svg" xmlns:xlink="http://www.w3.org/1999/xlink" width="538" height="120" viewBox="0 0 538 120">
  <defs>
    <clipPath id="clip-path">
      <rect id="사각형_511" data-name="사각형 511" width="374" height="120" transform="translate(163 101)" fill="#fff"/>
    </clipPath>
  </defs>
  <rect id="사각형_359" data-name="사각형 359" width="538" height="120" fill="#cfc1b4"/>
  <g id="마스크_그룹_110" data-name="마스크 그룹 110" transform="translate(1 -101)" clip-path="url(#clip-path)">
    <g id="그룹_1271" data-name="그룹 1271" transform="translate(-1754.813 1510.361)">
      <g id="그룹_1267" data-name="그룹 1267">
        <path id="패스_326" data-name="패스 326" d="M2087.416-1293.677a5.722,5.722,0,0,0,3.4-4.37c.323-2.809-1.871-5.453-5.146-6.562,1.905-1.507,2.931-3.578,2.512-5.6-.522-2.514-3.13-4.206-6.352-4.428a3.831,3.831,0,0,0,.029-1.664c-.609-2.934-4.622-4.581-8.964-3.68-.318.066-.627.148-.93.237-1.622-2.816-6.068-3.673-10.282-1.876-.067.029-.129.063-.2.092a5.524,5.524,0,0,0-2.124-4.517c-1.729-1.238-4.106-1.139-6.338.015.374-2.484-.3-4.767-2.027-6.005-1.763-1.262-4.2-1.139-6.474.083a4.741,4.741,0,0,0-1.672-4.9,4.919,4.919,0,0,0-5.892.459c-2.747-3.334-7.021-4.4-9.7-2.345a4.973,4.973,0,0,0-1.028,1.078,7.7,7.7,0,0,0-7.4-.806,7.518,7.518,0,0,0-3.526,3.107c-2.483-1.6-5.381-1.808-7.389-.273a6.054,6.054,0,0,0-1.98,5.955c-2.5-.751-5.014-.314-6.539,1.4a6.069,6.069,0,0,0-.8,6.27c-4.054-.145-7.487,2.1-7.851,5.27a5.291,5.291,0,0,0,1.215,3.9,5.468,5.468,0,0,0-3.489,2.9,5.933,5.933,0,0,0,2.214,7.272c-.118.139-.233.285-.341.437a6.055,6.055,0,0,0-1.119,4.405,5.581,5.581,0,0,0-2.965,4.133c-.389,3.382,2.867,6.535,7.272,7.041a10.317,10.317,0,0,0,1.75.05h0l88.1,4.554c.066.009.131.023.2.03a10.477,10.477,0,0,0,1.565.061h.012c3.72-.138,6.761-2.3,7.1-5.268C2092.576-1289.941,2090.525-1292.513,2087.416-1293.677Z" fill="none" stroke="#fff" stroke-linecap="round" stroke-miterlimit="10" stroke-width="1"/>
        <path id="패스_327" data-name="패스 327" d="M2048.761-1297.091s-1.479-5.127,6.8-3.746c0,0,3.056-6.191,9.268-.236,0,0,4.24-4.892,8.479.038" fill="none" stroke="#fff" stroke-linecap="round" stroke-miterlimit="10" stroke-width="1"/>
        <path id="패스_328" data-name="패스 328" d="M2070.086-1290.8s4.536-3.353,6.015,1.183c0,0,5.324-.379,3.155,4.3" fill="none" stroke="#fff" stroke-linecap="round" stroke-miterlimit="10" stroke-width="1"/>
        <path id="패스_329" data-name="패스 329" d="M2031.576-1291.524s-3.231-6.7-10.145-2.662c0,0-3.856-5.423-6.124,1.282" fill="none" stroke="#fff" stroke-linecap="round" stroke-miterlimit="10" stroke-width="1"/>
        <path id="패스_330" data-name="패스 330" d="M2024.94-1306.389s-4.772-6.533-10.392-1.048c0,0-2.958-6.137-8.874-.573" fill="none" stroke="#fff" stroke-linecap="round" stroke-miterlimit="10" stroke-width="1"/>
        <path id="패스_331" data-name="패스 331" d="M2034.758-1315.782s5.719-.394,8.381,3.648c0,0,4.338-4.25,8.381-1.829,0,0,7-4.087,9.466,1.829" fill="none" stroke="#fff" stroke-linecap="round" stroke-miterlimit="10" stroke-width="1"/>
        <path id="패스_332" data-name="패스 332" d="M2003.9-1322.856s3.747-4.239,6.113.493c0,0,4.24-3.253,3.845,1.381" fill="none" stroke="#fff" stroke-linecap="round" stroke-miterlimit="10" stroke-width="1"/>
        <path id="패스_333" data-name="패스 333" d="M2021.369-1332.06s6.975-2.663,8.454,3.352c0,0,7.592-.986,3.944,5.916" fill="none" stroke="#fff" stroke-linecap="round" stroke-miterlimit="10" stroke-width="1"/>
      </g>
      <g id="그룹_1268" data-name="그룹 1268">
        <path id="패스_334" data-name="패스 334" d="M2108.285-1358.1a6.944,6.944,0,0,0-6.09.773,3.863,3.863,0,0,1-2.131,1.007,4.694,4.694,0,0,1-1.172-.315,4.145,4.145,0,0,0-4.423,1.45c-.357.481-.6,1.037-.979,1.506-.791.99-2.059,1.485-2.931,2.4a4.224,4.224,0,0,0-.964,4.028,5.471,5.471,0,0,1,.4,1.537c-.006,1.495-1.791,2.179-3.006,3.05a5.469,5.469,0,0,0-2.186,5.068,5.468,5.468,0,0,0,3.455,4.3,8.008,8.008,0,0,1,1.855.728,8.32,8.32,0,0,1,1.365,1.507,8.858,8.858,0,0,0,4.453,2.363,11.1,11.1,0,0,0,4.951.453,4.87,4.87,0,0,0,3.78-2.937c1.319,2.135,2.751,4.376,5,5.489,2.007.994,4.354.93,6.593.844,2.774-.107,5.717-.268,8-1.851a8.013,8.013,0,0,0,7.282,2.541,8.011,8.011,0,0,0,5.947-4.91c1.806,1.194,4.274.179,5.905-1.244a6.843,6.843,0,0,0,2.1-2.85,3.487,3.487,0,0,0-.516-3.379,4.5,4.5,0,0,0,2.532-4.718,4.5,4.5,0,0,0-3.936-3.629,4.836,4.836,0,0,0,1.134-4.836,4.835,4.835,0,0,0-3.814-3.181,5.588,5.588,0,0,0-2.63-6.082,5.588,5.588,0,0,0-6.551,1,7.023,7.023,0,0,0-6.38-3.516,7.04,7.04,0,0,0-5.323,3.05c-.45.662-.729,2.161-1.558,2.416-.87.267-1.628-.416-2.474-.428-1.337-.018-1.606,1.131-2.7,1.494C2111.4-1354.342,2109.946-1357.514,2108.285-1358.1Z" fill="none" stroke="#fff" stroke-linecap="round" stroke-miterlimit="10" stroke-width="1"/>
        <path id="패스_335" data-name="패스 335" d="M2125.929-1344.881s-6.737-1.736-5.945,5.316c0,0-2.832.277-.938,4.117" fill="none" stroke="#fff" stroke-linecap="round" stroke-miterlimit="10" stroke-width="1"/>
        <path id="패스_336" data-name="패스 336" d="M2126.411-1337.89s3.9-3.934,7.554.294c0,0,4.163-1.637,4.88,1.381" fill="none" stroke="#fff" stroke-linecap="round" stroke-miterlimit="10" stroke-width="1"/>
        <path id="패스_337" data-name="패스 337" d="M2121.316-1353.522s3.321-4.2,7.545-.52c0,0,6.866-2.306,7.079,5.213" fill="none" stroke="#fff" stroke-linecap="round" stroke-miterlimit="10" stroke-width="1"/>
        <path id="패스_338" data-name="패스 338" d="M2097.776-1351.595s1.6-3.368,4.762-.328" fill="none" stroke="#fff" stroke-linecap="round" stroke-miterlimit="10" stroke-width="1"/>
        <path id="패스_339" data-name="패스 339" d="M2104.337-1342.07s1.115-3.029,4.989-1.463c0,0-.956-3.53,4.922-2.443" fill="none" stroke="#fff" stroke-linecap="round" stroke-miterlimit="10" stroke-width="1"/>
        <path id="패스_340" data-name="패스 340" d="M2091.133-1335.764s3.864-4.44,6.034.449" fill="none" stroke="#fff" stroke-linecap="round" stroke-miterlimit="10" stroke-width="1"/>
      </g>
      <g id="그룹_1269" data-name="그룹 1269">
        <path id="패스_341" data-name="패스 341" d="M2326.9-1251.769l-59.6,20.612a8,8,0,0,1-10.257-5.2l-40.327-130.288a8,8,0,0,1,5.027-9.926l51.138-17.687a8,8,0,0,1,10.086,4.7l48.785,127.363A8,8,0,0,1,2326.9-1251.769Z" fill="none" stroke="#fff" stroke-miterlimit="10" stroke-width="1"/>
        <path id="패스_342" data-name="패스 342" d="M2234.837-1381.095l-1.345-3.89a3.714,3.714,0,0,1,2.3-4.725l17.931-6.2a3.713,3.713,0,0,1,4.724,2.3l1.346,3.89" fill="none" stroke="#fff" stroke-miterlimit="10" stroke-width="1"/>
        <path id="패스_343" data-name="패스 343" d="M2309.575-1245.778l1.346,3.891a3.715,3.715,0,0,1-2.3,4.724l-17.932,6.2a3.715,3.715,0,0,1-4.724-2.3l-1.346-3.891" fill="none" stroke="#fff" stroke-miterlimit="10" stroke-width="1"/>
        <line id="선_393" data-name="선 393" x2="68.058" y2="4.854" transform="translate(2221.744 -1376.566)" fill="none" stroke="#fff" stroke-miterlimit="10" stroke-width="1"/>
        <line id="선_394" data-name="선 394" x2="56.238" y2="4.011" transform="translate(2231.896 -1380.078)" fill="none" stroke="#fff" stroke-miterlimit="10" stroke-width="1"/>
        <line id="선_395" data-name="선 395" x2="44.098" y2="3.145" transform="translate(2242.323 -1383.684)" fill="none" stroke="#fff" stroke-miterlimit="10" stroke-width="1"/>
        <line id="선_396" data-name="선 396" x2="31.885" y2="2.274" transform="translate(2252.813 -1387.312)" fill="none" stroke="#fff" stroke-miterlimit="10" stroke-width="1"/>
        <line id="선_397" data-name="선 397" x2="19.644" y2="1.393" transform="translate(2263.324 -1390.947)" fill="none" stroke="#fff" stroke-miterlimit="10" stroke-width="1"/>
        <line id="선_398" data-name="선 398" x2="58.084" y2="4.143" transform="translate(2240.329 -1353.376)" fill="none" stroke="#fff" stroke-miterlimit="10" stroke-width="1"/>
        <line id="선_399" data-name="선 399" x2="52.091" y2="3.716" transform="translate(2244.654 -1357.303)" fill="none" stroke="#fff" stroke-miterlimit="10" stroke-width="1"/>
        <line id="선_400" data-name="선 400" x2="45.935" y2="3.276" transform="translate(2249.096 -1361.336)" fill="none" stroke="#fff" stroke-miterlimit="10" stroke-width="1"/>
        <line id="선_401" data-name="선 401" x2="39.055" y2="2.786" transform="translate(2254.253 -1365.345)" fill="none" stroke="#fff" stroke-miterlimit="10" stroke-width="1"/>
        <line id="선_402" data-name="선 402" x2="33.541" y2="2.378" transform="translate(2258.037 -1369.454)" fill="none" stroke="#fff" stroke-miterlimit="10" stroke-width="1"/>
        <line id="선_403" data-name="선 403" x2="52.418" y2="3.739" transform="translate(2254.827 -1329.912)" fill="none" stroke="#fff" stroke-miterlimit="10" stroke-width="1"/>
        <line id="선_404" data-name="선 404" x2="46.425" y2="3.311" transform="translate(2259.153 -1333.839)" fill="none" stroke="#fff" stroke-miterlimit="10" stroke-width="1"/>
        <line id="선_405" data-name="선 405" x2="39.771" y2="2.837" transform="translate(2264.094 -1337.837)" fill="none" stroke="#fff" stroke-miterlimit="10" stroke-width="1"/>
        <line id="선_406" data-name="선 406" x2="34.077" y2="2.431" transform="translate(2268.064 -1341.93)" fill="none" stroke="#fff" stroke-miterlimit="10" stroke-width="1"/>
        <line id="선_407" data-name="선 407" x2="27.872" y2="1.976" transform="translate(2272.539 -1345.993)" fill="none" stroke="#fff" stroke-miterlimit="10" stroke-width="1"/>
        <line id="선_408" data-name="선 408" x2="53.332" y2="3.804" transform="translate(2262.492 -1307.764)" fill="none" stroke="#fff" stroke-miterlimit="10" stroke-width="1"/>
        <line id="선_409" data-name="선 409" x2="47.339" y2="3.377" transform="translate(2266.817 -1311.691)" fill="none" stroke="#fff" stroke-miterlimit="10" stroke-width="1"/>
        <line id="선_410" data-name="선 410" x2="41.183" y2="2.938" transform="translate(2271.259 -1315.724)" fill="none" stroke="#fff" stroke-miterlimit="10" stroke-width="1"/>
        <line id="선_411" data-name="선 411" x2="34.991" y2="2.496" transform="translate(2275.728 -1319.782)" fill="none" stroke="#fff" stroke-miterlimit="10" stroke-width="1"/>
        <line id="선_412" data-name="선 412" x2="28.786" y2="2.041" transform="translate(2280.203 -1323.844)" fill="none" stroke="#fff" stroke-miterlimit="10" stroke-width="1"/>
        <line id="선_413" data-name="선 413" x2="47.424" y2="3.383" transform="translate(2276.699 -1285.493)" fill="none" stroke="#fff" stroke-miterlimit="10" stroke-width="1"/>
        <line id="선_414" data-name="선 414" x2="41.431" y2="2.955" transform="translate(2281.024 -1289.42)" fill="none" stroke="#fff" stroke-miterlimit="10" stroke-width="1"/>
        <line id="선_415" data-name="선 415" x2="35.276" y2="2.516" transform="translate(2285.467 -1293.454)" fill="none" stroke="#fff" stroke-miterlimit="10" stroke-width="1"/>
        <line id="선_416" data-name="선 416" x2="29.083" y2="2.074" transform="translate(2289.936 -1297.511)" fill="none" stroke="#fff" stroke-miterlimit="10" stroke-width="1"/>
        <line id="선_417" data-name="선 417" x2="22.875" y2="1.622" transform="translate(2294.413 -1301.576)" fill="none" stroke="#fff" stroke-miterlimit="10" stroke-width="1"/>
        <line id="선_418" data-name="선 418" x2="47.924" y2="3.418" transform="translate(2284.331 -1263.427)" fill="none" stroke="#fff" stroke-miterlimit="10" stroke-width="1"/>
        <line id="선_419" data-name="선 419" x2="42.274" y2="3.015" transform="translate(2288.656 -1267.354)" fill="none" stroke="#fff" stroke-miterlimit="10" stroke-width="1"/>
        <line id="선_420" data-name="선 420" x2="36.119" y2="2.576" transform="translate(2293.099 -1271.387)" fill="none" stroke="#fff" stroke-miterlimit="10" stroke-width="1"/>
        <line id="선_421" data-name="선 421" x2="29.927" y2="2.135" transform="translate(2297.568 -1275.445)" fill="none" stroke="#fff" stroke-miterlimit="10" stroke-width="1"/>
        <line id="선_422" data-name="선 422" x2="23.718" y2="1.682" transform="translate(2302.045 -1279.51)" fill="none" stroke="#fff" stroke-miterlimit="10" stroke-width="1"/>
        <line id="선_423" data-name="선 423" x2="21.594" y2="1.54" transform="translate(2305.894 -1253.513)" fill="none" stroke="#fff" stroke-miterlimit="10" stroke-width="1"/>
        <line id="선_424" data-name="선 424" x2="21.216" y2="1.504" transform="translate(2310.371 -1257.579)" fill="none" stroke="#fff" stroke-miterlimit="10" stroke-width="1"/>
        <line id="선_425" data-name="선 425" x1="37.653" y2="34.187" transform="translate(2225.101 -1373.737)" fill="none" stroke="#fff" stroke-miterlimit="10" stroke-width="1"/>
        <line id="선_426" data-name="선 426" x1="33.143" y2="30.092" transform="translate(2223.723 -1374.097)" fill="none" stroke="#fff" stroke-miterlimit="10" stroke-width="1"/>
        <line id="선_427" data-name="선 427" x1="28.538" y2="25.91" transform="translate(2222.307 -1374.491)" fill="none" stroke="#fff" stroke-miterlimit="10" stroke-width="1"/>
        <line id="선_428" data-name="선 428" x1="24.008" y2="21.797" transform="translate(2220.938 -1375.031)" fill="none" stroke="#fff" stroke-miterlimit="10" stroke-width="1"/>
        <line id="선_429" data-name="선 429" x1="19.35" y2="17.554" transform="translate(2219.454 -1375.349)" fill="none" stroke="#fff" stroke-miterlimit="10" stroke-width="1"/>
        <line id="선_430" data-name="선 430" x1="14.617" y2="13.26" transform="translate(2217.812 -1375.804)" fill="none" stroke="#fff" stroke-miterlimit="10" stroke-width="1"/>
        <line id="선_431" data-name="선 431" x1="43.781" y2="39.75" transform="translate(2233.951 -1350.708)" fill="none" stroke="#fff" stroke-miterlimit="10" stroke-width="1"/>
        <line id="선_432" data-name="선 432" x1="39.332" y2="35.711" transform="translate(2232.573 -1351.124)" fill="none" stroke="#fff" stroke-miterlimit="10" stroke-width="1"/>
        <line id="선_433" data-name="선 433" x1="34.764" y2="31.563" transform="translate(2231.157 -1351.551)" fill="none" stroke="#fff" stroke-miterlimit="10" stroke-width="1"/>
        <line id="선_434" data-name="선 434" x1="30.315" y2="27.524" transform="translate(2229.732 -1352.115)" fill="none" stroke="#fff" stroke-miterlimit="10" stroke-width="1"/>
        <line id="선_435" data-name="선 435" x1="25.58" y2="23.206" transform="translate(2228.304 -1352.409)" fill="none" stroke="#fff" stroke-miterlimit="10" stroke-width="1"/>
        <line id="선_436" data-name="선 436" x1="43.781" y2="39.75" transform="translate(2240.817 -1327.834)" fill="none" stroke="#fff" stroke-miterlimit="10" stroke-width="1"/>
        <line id="선_437" data-name="선 437" x1="39.332" y2="35.711" transform="translate(2239.438 -1328.25)" fill="none" stroke="#fff" stroke-miterlimit="10" stroke-width="1"/>
        <line id="선_438" data-name="선 438" x1="34.764" y2="31.563" transform="translate(2238.022 -1328.677)" fill="none" stroke="#fff" stroke-miterlimit="10" stroke-width="1"/>
        <line id="선_439" data-name="선 439" x1="30.315" y2="27.524" transform="translate(2236.598 -1329.241)" fill="none" stroke="#fff" stroke-miterlimit="10" stroke-width="1"/>
        <line id="선_440" data-name="선 440" x1="25.58" y2="23.206" transform="translate(2235.17 -1329.536)" fill="none" stroke="#fff" stroke-miterlimit="10" stroke-width="1"/>
        <line id="선_441" data-name="선 441" x1="20.712" y2="18.789" transform="translate(2226.796 -1352.864)" fill="none" stroke="#fff" stroke-miterlimit="10" stroke-width="1"/>
        <line id="선_442" data-name="선 442" x1="48.925" y2="44.42" transform="translate(2249.482 -1305.202)" fill="none" stroke="#fff" stroke-miterlimit="10" stroke-width="1"/>
        <line id="선_443" data-name="선 443" x1="44.476" y2="40.381" transform="translate(2248.104 -1305.618)" fill="none" stroke="#fff" stroke-miterlimit="10" stroke-width="1"/>
        <line id="선_444" data-name="선 444" x1="39.907" y2="36.233" transform="translate(2246.687 -1306.045)" fill="none" stroke="#fff" stroke-miterlimit="10" stroke-width="1"/>
        <line id="선_445" data-name="선 445" x1="35.311" y2="32.06" transform="translate(2245.263 -1306.474)" fill="none" stroke="#fff" stroke-miterlimit="10" stroke-width="1"/>
        <line id="선_446" data-name="선 446" x1="30.727" y2="27.875" transform="translate(2243.835 -1306.903)" fill="none" stroke="#fff" stroke-miterlimit="10" stroke-width="1"/>
        <line id="선_447" data-name="선 447" x1="49.908" y2="45.313" transform="translate(2256.515 -1283.373)" fill="none" stroke="#fff" stroke-miterlimit="10" stroke-width="1"/>
        <line id="선_448" data-name="선 448" x1="45.46" y2="41.274" transform="translate(2255.136 -1283.789)" fill="none" stroke="#fff" stroke-miterlimit="10" stroke-width="1"/>
        <line id="선_449" data-name="선 449" x1="40.891" y2="37.126" transform="translate(2253.72 -1284.216)" fill="none" stroke="#fff" stroke-miterlimit="10" stroke-width="1"/>
        <line id="선_450" data-name="선 450" x1="36.295" y2="32.953" transform="translate(2252.296 -1284.645)" fill="none" stroke="#fff" stroke-miterlimit="10" stroke-width="1"/>
        <line id="선_451" data-name="선 451" x1="31.711" y2="28.768" transform="translate(2250.868 -1285.074)" fill="none" stroke="#fff" stroke-miterlimit="10" stroke-width="1"/>
        <line id="선_452" data-name="선 452" x1="24.571" y2="22.309" transform="translate(2289.536 -1261.156)" fill="none" stroke="#fff" stroke-miterlimit="10" stroke-width="1"/>
        <line id="선_453" data-name="선 453" x1="28.896" y2="26.236" transform="translate(2279.384 -1261.572)" fill="none" stroke="#fff" stroke-miterlimit="10" stroke-width="1"/>
        <line id="선_454" data-name="선 454" x1="33.339" y2="30.269" transform="translate(2268.957 -1261.999)" fill="none" stroke="#fff" stroke-miterlimit="10" stroke-width="1"/>
        <line id="선_455" data-name="선 455" x1="34.374" y2="31.21" transform="translate(2261.9 -1262.428)" fill="none" stroke="#fff" stroke-miterlimit="10" stroke-width="1"/>
        <line id="선_456" data-name="선 456" x1="31.711" y2="28.768" transform="translate(2258.552 -1262.857)" fill="none" stroke="#fff" stroke-miterlimit="10" stroke-width="1"/>
        <line id="선_457" data-name="선 457" x1="25.859" y2="23.459" transform="translate(2242.327 -1307.358)" fill="none" stroke="#fff" stroke-miterlimit="10" stroke-width="1"/>
      </g>
      <g id="그룹_1270" data-name="그룹 1270">
        <path id="패스_344" data-name="패스 344" d="M2005.116-1375.434l-42.668-17.475a5.848,5.848,0,0,1-3.121-7.806l40.8-90.993a5.849,5.849,0,0,1,7.554-3.02l36.613,14.994a5.85,5.85,0,0,1,3.266,7.451l-34.746,93.474A5.849,5.849,0,0,1,2005.116-1375.434Z" fill="none" stroke="#fff" stroke-miterlimit="10" stroke-width="1"/>
        <path id="패스_345" data-name="패스 345" d="M2017.056-1490.889l1.141-2.785a2.716,2.716,0,0,1,3.543-1.484l12.837,5.257a2.716,2.716,0,0,1,1.484,3.543l-1.14,2.785" fill="none" stroke="#fff" stroke-miterlimit="10" stroke-width="1"/>
        <path id="패스_346" data-name="패스 346" d="M1992.714-1380.513l-1.141,2.785a2.715,2.715,0,0,1-3.542,1.484l-12.838-5.258a2.715,2.715,0,0,1-1.484-3.542l1.141-2.785" fill="none" stroke="#fff" stroke-miterlimit="10" stroke-width="1"/>
        <line id="선_458" data-name="선 458" x2="35.011" y2="35.54" transform="translate(2007.682 -1494.728)" fill="none" stroke="#fff" stroke-miterlimit="10" stroke-width="1"/>
        <line id="선_459" data-name="선 459" x2="28.93" y2="29.368" transform="translate(2014.951 -1491.751)" fill="none" stroke="#fff" stroke-miterlimit="10" stroke-width="1"/>
        <line id="선_460" data-name="선 460" x2="22.685" y2="23.028" transform="translate(2022.416 -1488.694)" fill="none" stroke="#fff" stroke-miterlimit="10" stroke-width="1"/>
        <line id="선_461" data-name="선 461" x2="16.403" y2="16.65" transform="translate(2029.926 -1485.618)" fill="none" stroke="#fff" stroke-miterlimit="10" stroke-width="1"/>
        <line id="선_462" data-name="선 462" x2="10.109" y2="10.254" transform="translate(2037.451 -1482.536)" fill="none" stroke="#fff" stroke-miterlimit="10" stroke-width="1"/>
        <line id="선_463" data-name="선 463" x2="29.88" y2="30.331" transform="translate(2006.681 -1473.022)" fill="none" stroke="#fff" stroke-miterlimit="10" stroke-width="1"/>
        <line id="선_464" data-name="선 464" x2="26.797" y2="27.202" transform="translate(2010.952 -1473.088)" fill="none" stroke="#fff" stroke-miterlimit="10" stroke-width="1"/>
        <line id="선_465" data-name="선 465" x2="23.63" y2="23.988" transform="translate(2015.339 -1473.156)" fill="none" stroke="#fff" stroke-miterlimit="10" stroke-width="1"/>
        <line id="선_466" data-name="선 466" x2="20.091" y2="20.395" transform="translate(2020.105 -1472.865)" fill="none" stroke="#fff" stroke-miterlimit="10" stroke-width="1"/>
        <line id="선_467" data-name="선 467" x2="17.261" y2="17.507" transform="translate(2024.168 -1473.293)" fill="none" stroke="#fff" stroke-miterlimit="10" stroke-width="1"/>
        <line id="선_468" data-name="선 468" x2="26.965" y2="27.373" transform="translate(2003.305 -1453.139)" fill="none" stroke="#fff" stroke-miterlimit="10" stroke-width="1"/>
        <line id="선_469" data-name="선 469" x2="23.882" y2="24.243" transform="translate(2007.576 -1453.206)" fill="none" stroke="#fff" stroke-miterlimit="10" stroke-width="1"/>
        <line id="선_470" data-name="선 470" x2="20.459" y2="20.768" transform="translate(2012.219 -1453.013)" fill="none" stroke="#fff" stroke-miterlimit="10" stroke-width="1"/>
        <line id="선_471" data-name="선 471" x2="17.53" y2="17.795" transform="translate(2016.375 -1453.342)" fill="none" stroke="#fff" stroke-miterlimit="10" stroke-width="1"/>
        <line id="선_472" data-name="선 472" x2="14.344" y2="14.548" transform="translate(2020.794 -1453.41)" fill="none" stroke="#fff" stroke-miterlimit="10" stroke-width="1"/>
        <line id="선_473" data-name="선 473" x2="27.435" y2="27.85" transform="translate(1996.813 -1437.28)" fill="none" stroke="#fff" stroke-miterlimit="10" stroke-width="1"/>
        <line id="선_474" data-name="선 474" x2="24.352" y2="24.72" transform="translate(2001.084 -1437.346)" fill="none" stroke="#fff" stroke-miterlimit="10" stroke-width="1"/>
        <line id="선_475" data-name="선 475" x2="21.186" y2="21.506" transform="translate(2005.471 -1437.414)" fill="none" stroke="#fff" stroke-miterlimit="10" stroke-width="1"/>
        <line id="선_476" data-name="선 476" x2="18" y2="18.272" transform="translate(2009.883 -1437.483)" fill="none" stroke="#fff" stroke-miterlimit="10" stroke-width="1"/>
        <line id="선_477" data-name="선 477" x2="14.814" y2="15.026" transform="translate(2014.302 -1437.551)" fill="none" stroke="#fff" stroke-miterlimit="10" stroke-width="1"/>
        <line id="선_478" data-name="선 478" x2="24.396" y2="24.765" transform="translate(1993.853 -1418.193)" fill="none" stroke="#fff" stroke-miterlimit="10" stroke-width="1"/>
        <line id="선_479" data-name="선 479" x2="21.313" y2="21.635" transform="translate(1998.124 -1418.259)" fill="none" stroke="#fff" stroke-miterlimit="10" stroke-width="1"/>
        <line id="선_480" data-name="선 480" x2="18.147" y2="18.421" transform="translate(2002.511 -1418.327)" fill="none" stroke="#fff" stroke-miterlimit="10" stroke-width="1"/>
        <line id="선_481" data-name="선 481" x2="14.961" y2="15.187" transform="translate(2006.924 -1418.396)" fill="none" stroke="#fff" stroke-miterlimit="10" stroke-width="1"/>
        <line id="선_482" data-name="선 482" x2="11.772" y2="11.94" transform="translate(2011.345 -1418.464)" fill="none" stroke="#fff" stroke-miterlimit="10" stroke-width="1"/>
        <line id="선_483" data-name="선 483" x2="24.653" y2="25.026" transform="translate(1987.383 -1402.395)" fill="none" stroke="#fff" stroke-miterlimit="10" stroke-width="1"/>
        <line id="선_484" data-name="선 484" x2="21.747" y2="22.076" transform="translate(1991.654 -1402.461)" fill="none" stroke="#fff" stroke-miterlimit="10" stroke-width="1"/>
        <line id="선_485" data-name="선 485" x2="18.581" y2="18.861" transform="translate(1996.041 -1402.529)" fill="none" stroke="#fff" stroke-miterlimit="10" stroke-width="1"/>
        <line id="선_486" data-name="선 486" x2="15.395" y2="15.628" transform="translate(2000.453 -1402.597)" fill="none" stroke="#fff" stroke-miterlimit="10" stroke-width="1"/>
        <line id="선_487" data-name="선 487" x2="12.206" y2="12.38" transform="translate(2004.875 -1402.666)" fill="none" stroke="#fff" stroke-miterlimit="10" stroke-width="1"/>
        <line id="선_488" data-name="선 488" x2="11.109" y2="11.276" transform="translate(1994.43 -1386.538)" fill="none" stroke="#fff" stroke-miterlimit="10" stroke-width="1"/>
        <line id="선_489" data-name="선 489" x2="10.918" y2="11.074" transform="translate(1998.851 -1386.606)" fill="none" stroke="#fff" stroke-miterlimit="10" stroke-width="1"/>
        <line id="선_490" data-name="선 490" x1="37.181" y2="0.576" transform="translate(1991.645 -1473.365)" fill="none" stroke="#fff" stroke-miterlimit="10" stroke-width="1"/>
        <line id="선_491" data-name="선 491" x1="32.728" y2="0.507" transform="translate(1993.04 -1476.407)" fill="none" stroke="#fff" stroke-miterlimit="10" stroke-width="1"/>
        <line id="선_492" data-name="선 492" x1="28.18" y2="0.437" transform="translate(1994.472 -1479.532)" fill="none" stroke="#fff" stroke-miterlimit="10" stroke-width="1"/>
        <line id="선_493" data-name="선 493" x1="23.707" y2="0.367" transform="translate(1995.969 -1482.678)" fill="none" stroke="#fff" stroke-miterlimit="10" stroke-width="1"/>
        <line id="선_494" data-name="선 494" x1="19.1" y2="0.288" transform="translate(1997.358 -1485.819)" fill="none" stroke="#fff" stroke-miterlimit="10" stroke-width="1"/>
        <line id="선_495" data-name="선 495" x1="14.428" y2="0.218" transform="translate(1998.75 -1489.148)" fill="none" stroke="#fff" stroke-miterlimit="10" stroke-width="1"/>
        <line id="선_496" data-name="선 496" x1="43.232" y2="0.67" transform="translate(1982.691 -1453.49)" fill="none" stroke="#fff" stroke-miterlimit="10" stroke-width="1"/>
        <line id="선_497" data-name="선 497" x1="38.839" y2="0.602" transform="translate(1984.086 -1456.533)" fill="none" stroke="#fff" stroke-miterlimit="10" stroke-width="1"/>
        <line id="선_498" data-name="선 498" x1="34.328" y2="0.532" transform="translate(1985.518 -1459.658)" fill="none" stroke="#fff" stroke-miterlimit="10" stroke-width="1"/>
        <line id="선_499" data-name="선 499" x1="29.935" y2="0.464" transform="translate(1986.96 -1462.804)" fill="none" stroke="#fff" stroke-miterlimit="10" stroke-width="1"/>
        <line id="선_500" data-name="선 500" x1="25.25" y2="0.381" transform="translate(1988.404 -1465.943)" fill="none" stroke="#fff" stroke-miterlimit="10" stroke-width="1"/>
        <line id="선_501" data-name="선 501" x1="43.232" y2="0.67" transform="translate(1975.41 -1437.618)" fill="none" stroke="#fff" stroke-miterlimit="10" stroke-width="1"/>
        <line id="선_502" data-name="선 502" x1="38.839" y2="0.602" transform="translate(1976.805 -1440.661)" fill="none" stroke="#fff" stroke-miterlimit="10" stroke-width="1"/>
        <line id="선_503" data-name="선 503" x1="34.328" y2="0.532" transform="translate(1978.238 -1443.786)" fill="none" stroke="#fff" stroke-miterlimit="10" stroke-width="1"/>
        <line id="선_504" data-name="선 504" x1="29.935" y2="0.464" transform="translate(1979.679 -1446.933)" fill="none" stroke="#fff" stroke-miterlimit="10" stroke-width="1"/>
        <line id="선_505" data-name="선 505" x1="25.25" y2="0.381" transform="translate(1981.124 -1450.072)" fill="none" stroke="#fff" stroke-miterlimit="10" stroke-width="1"/>
        <line id="선_506" data-name="선 506" x1="20.445" y2="0.308" transform="translate(1989.93 -1469.273)" fill="none" stroke="#fff" stroke-miterlimit="10" stroke-width="1"/>
        <line id="선_507" data-name="선 507" x1="48.311" y2="0.748" transform="translate(1966.978 -1418.525)" fill="none" stroke="#fff" stroke-miterlimit="10" stroke-width="1"/>
        <line id="선_508" data-name="선 508" x1="43.918" y2="0.68" transform="translate(1968.373 -1421.568)" fill="none" stroke="#fff" stroke-miterlimit="10" stroke-width="1"/>
        <line id="선_509" data-name="선 509" x1="39.407" y2="0.611" transform="translate(1969.805 -1424.694)" fill="none" stroke="#fff" stroke-miterlimit="10" stroke-width="1"/>
        <line id="선_510" data-name="선 510" x1="34.868" y2="0.54" transform="translate(1971.246 -1427.838)" fill="none" stroke="#fff" stroke-miterlimit="10" stroke-width="1"/>
        <line id="선_511" data-name="선 511" x1="30.331" y2="0.457" transform="translate(1972.691 -1430.977)" fill="none" stroke="#fff" stroke-miterlimit="10" stroke-width="1"/>
        <line id="선_512" data-name="선 512" x1="49.282" y2="0.763" transform="translate(1959.862 -1402.671)" fill="none" stroke="#fff" stroke-miterlimit="10" stroke-width="1"/>
        <line id="선_513" data-name="선 513" x1="44.89" y2="0.695" transform="translate(1961.257 -1405.714)" fill="none" stroke="#fff" stroke-miterlimit="10" stroke-width="1"/>
        <line id="선_514" data-name="선 514" x1="40.378" y2="0.626" transform="translate(1962.69 -1408.84)" fill="none" stroke="#fff" stroke-miterlimit="10" stroke-width="1"/>
        <line id="선_515" data-name="선 515" x1="35.84" y2="0.555" transform="translate(1964.131 -1411.984)" fill="none" stroke="#fff" stroke-miterlimit="10" stroke-width="1"/>
        <line id="선_516" data-name="선 516" x1="31.302" y2="0.472" transform="translate(1965.576 -1415.123)" fill="none" stroke="#fff" stroke-miterlimit="10" stroke-width="1"/>
        <line id="선_517" data-name="선 517" x1="24.263" y2="0.376" transform="translate(1978.367 -1386.765)" fill="none" stroke="#fff" stroke-miterlimit="10" stroke-width="1"/>
        <line id="선_518" data-name="선 518" x1="28.534" y2="0.442" transform="translate(1971.098 -1389.808)" fill="none" stroke="#fff" stroke-miterlimit="10" stroke-width="1"/>
        <line id="선_519" data-name="선 519" x1="32.921" y2="0.51" transform="translate(1963.633 -1392.933)" fill="none" stroke="#fff" stroke-miterlimit="10" stroke-width="1"/>
        <line id="선_520" data-name="선 520" x1="33.943" y2="0.526" transform="translate(1959.513 -1396.077)" fill="none" stroke="#fff" stroke-miterlimit="10" stroke-width="1"/>
        <line id="선_521" data-name="선 521" x1="31.302" y2="0.472" transform="translate(1959.062 -1399.216)" fill="none" stroke="#fff" stroke-miterlimit="10" stroke-width="1"/>
        <line id="선_522" data-name="선 522" x1="25.525" y2="0.385" transform="translate(1974.217 -1434.307)" fill="none" stroke="#fff" stroke-miterlimit="10" stroke-width="1"/>
      </g>
      <path id="패스_347" data-name="패스 347" d="M2145.311-1386.541c11.518.307,23.384,2.336,32.974,8.725a41.167,41.167,0,0,1,17.5,26.8c.967,5.509.788,11.157,1.513,16.7s2.524,11.244,6.63,15.042a21.683,21.683,0,0,0,10.944,5,34.084,34.084,0,0,0,16.963-1.246" fill="none" stroke="#fff" stroke-linecap="round" stroke-miterlimit="10" stroke-width="1"/>
    </g>
  </g>
</svg>
