<svg xmlns="http://www.w3.org/2000/svg" width="497.957" height="497.957" viewBox="0 0 497.957 497.957">
  <g id="bg_search" transform="translate(-773 -289.043)">
    <g id="그룹_1352" data-name="그룹 1352" transform="translate(61.979 114.217)">
      <g id="그룹_1351" data-name="그룹 1351" transform="translate(711.021 174.826)">
        <path id="패스_398" data-name="패스 398" d="M21.705,124.482A147.934,147.934,0,0,1,12.13,14.154" transform="translate(53.009 132.68)" fill="none" stroke="#f63" stroke-linecap="round" stroke-linejoin="round" stroke-width="20"/>
        <g id="타원_91" data-name="타원 91" transform="translate(0 0)" fill="none" stroke="#f63" stroke-linecap="round" stroke-linejoin="round" stroke-width="20">
          <circle cx="188.608" cy="188.608" r="188.608" stroke="none"/>
          <circle cx="188.608" cy="188.608" r="178.608" fill="none"/>
        </g>
        <g id="패스_399" data-name="패스 399" transform="translate(253.39 253.924)" fill="none" stroke-linecap="round" stroke-linejoin="round">
          <path d="M234.46,185.137,76.411,27.088c-6.65,9.824-15.125,18.3-23.829,26.993a188.113,188.113,0,0,1-25.551,21.2l158.64,158.64a34.5,34.5,0,1,0,48.789-48.789Z" stroke="none"/>
          <path d="M 210.0656127929688 224.0327606201172 C 213.9369506835938 224.0327606201172 217.5780029296875 222.5237579345703 220.3179626464844 219.7838592529297 C 225.9712066650391 214.1305541992188 225.9712066650391 204.9320526123047 220.3180084228516 199.2788543701172 L 77.87452697753906 56.8353385925293 C 74.19654083251953 60.76025390625 70.43794250488281 64.51437377929688 66.73360443115234 68.21430969238281 C 63.68354797363281 71.26831817626953 60.50539779663086 74.23739624023438 57.17284774780273 77.14340209960938 L 199.8131103515625 219.7837066650391 C 202.5531616210938 222.5237579345703 206.1941986083984 224.0327606201172 210.0656127929688 224.0327606201172 M 210.0655822753906 244.0327606201172 C 201.2372741699219 244.0327606201172 192.4089508056641 240.6638031005859 185.6710052490234 233.9259033203125 L 27.031005859375 75.28585815429688 C 35.98380661010742 69.03031158447266 44.59425354003906 62.07970809936523 52.58230590820312 54.08130645751953 C 61.28610610961914 45.38785934448242 69.76170349121094 36.91225814819336 76.41150665283203 27.0880069732666 L 234.4601593017578 185.1367034912109 C 247.9360046386719 198.6125640869141 247.9360046386719 220.4499053955078 234.4601593017578 233.9259033203125 C 227.7221984863281 240.6638031005859 218.8938903808594 244.0327606201172 210.0655822753906 244.0327606201172 Z" stroke="none" fill="#f63"/>
        </g>
      </g>
    </g>
    <text id="_404_ERROR" data-name="404
ERROR" transform="translate(773 423)" fill="#f63" font-size="50" font-family="Montserrat-Bold, Montserrat" font-weight="700"><tspan x="-47.925" y="48">404</tspan><tspan x="-91.275" y="102">ERROR</tspan></text>
  </g>
</svg>
