<svg xmlns="http://www.w3.org/2000/svg" width="252.037" height="24.2" viewBox="0 0 252.037 24.2">
    <g data-name="그룹 409">
        <path data-name="패스 16" d="M219.745.401h5.415v18.987h26.878v4.411h-32.293z"/>
        <path data-name="패스 17" d="M124.435.401h5.416v18.987h11.732v4.411h-17.147z"/>
        <path data-name="패스 18" d="M162.143 18.786h-10.864l-2.073 5.014h-5.544L154.091.4h5.349l10.463 23.4h-5.682zm-1.7-4.112-3.711-8.958-3.71 8.958z"/>
        <path data-name="패스 19" d="M193.921 17.415c0 4.044-3.208 6.384-9.36 6.384h-12.1V.399h11.431c5.851 0 8.858 2.44 8.858 6.084a5.625 5.625 0 0 1-3.109 5.147 5.779 5.779 0 0 1 4.28 5.785zM177.843 4.477v5.516h5.381c2.641 0 4.078-.936 4.078-2.774s-1.437-2.741-4.078-2.741zm10.629 12.37c0-1.971-1.5-2.908-4.312-2.908h-6.317v5.783h6.317c2.812 0 4.312-.869 4.312-2.875z"/>
        <path data-name="패스 20" d="M215.835 19.454v4.345h-18.12V.399h17.683v4.346h-12.3v5.081h10.863v4.212h-10.863v5.415z"/>
        <g data-name="그룹 272">
            <path data-name="패스 21" d="M29.424 12.1c0-6.953 5.415-12.1 12.8-12.1 7.354 0 12.8 5.115 12.8 12.1s-5.448 12.1-12.8 12.1c-7.385 0-12.8-5.147-12.8-12.1zm20.122 0a7.322 7.322 0 1 0-7.32 7.488 7.137 7.137 0 0 0 7.32-7.488z"/>
            <path data-name="패스 22" d="M80.083.401v23.4h-4.445L63.972 9.595v14.206h-5.348V.401h4.479l11.633 14.207V.401z"/>
            <path data-name="패스 23" d="M100.96 11.734h4.947v9.493a16.145 16.145 0 0 1-9.46 2.974c-7.354 0-12.768-5.047-12.768-12.1S89.094.001 96.547.001c4.112 0 7.521 1.4 9.794 4.044l-3.476 3.209a7.916 7.916 0 0 0-6.051-2.641c-4.546 0-7.655 3.041-7.655 7.487a7.222 7.222 0 0 0 7.589 7.488 8.6 8.6 0 0 0 4.211-1z"/>
            <path data-name="패스 24" d="M.004.401h5.414v18.987h22.33v4.411H.004z"/>
        </g>
    </g>
</svg>
