<svg xmlns="http://www.w3.org/2000/svg" width="20.009" height="24" viewBox="0 0 20.009 24">
    <g data-name="그룹 1057">
        <path data-name="패스 312" d="M61.4 6.027 55.6.237A.807.807 0 0 0 55.034 0H43.76a2.144 2.144 0 0 0-2.141 2.141v19.718A2.144 2.144 0 0 0 43.76 24h15.728a2.143 2.143 0 0 0 2.14-2.141V6.594a.8.8 0 0 0-.228-.567zM43.227 2.141a.534.534 0 0 1 .533-.533h10.449v1.287H46.27a1.4 1.4 0 0 0-1.4 1.4v6.04a1.4 1.4 0 0 0 1.4 1.4h10.707a1.4 1.4 0 0 0 1.4-1.4V7.4h1.643v14.459a.533.533 0 0 1-.533.533H43.76a.534.534 0 0 1-.533-.533zm12.59 3.651V2.723l3.069 3.069zm.954 4.337H46.476V4.5h7.732v2.1a.805.805 0 0 0 .8.8h1.758z" style="fill:#f63" transform="translate(-41.619)"/>
        <path data-name="패스 313" d="M46.191 16.316h10.865a.864.864 0 0 0 .733-.949.864.864 0 0 0-.733-.95H46.191a.865.865 0 0 0-.734.95.864.864 0 0 0 .734.949z" transform="translate(-41.619 -2.37)" style="fill:#f63"/>
        <path data-name="패스 314" d="M46.191 20.077h10.865a.981.981 0 0 0 0-1.9H46.191a.981.981 0 0 0 0 1.9z" transform="translate(-41.619 -2.988)" style="fill:#f63"/>
        <path data-name="패스 315" d="M46.191 23.839h10.865a.981.981 0 0 0 0-1.9H46.191a.981.981 0 0 0 0 1.9z" transform="translate(-41.619 -3.606)" style="fill:#f63"/>
    </g>
</svg>
