<svg xmlns="http://www.w3.org/2000/svg" width="24" height="24.001" viewBox="0 0 24 24.001">
    <g data-name="그룹 1059">
        <path data-name="패스 316" d="M-28.435 0a12.013 12.013 0 0 0-12 12 12.014 12.014 0 0 0 12 12 12.015 12.015 0 0 0 12-12 12.014 12.014 0 0 0-12-12zm0 1.608A10.4 10.4 0 0 1-18.043 12a10.4 10.4 0 0 1-10.392 10.392A10.4 10.4 0 0 1-38.827 12 10.4 10.4 0 0 1-28.435 1.608z" style="fill:#f63" transform="translate(40.434)"/>
        <path data-name="패스 317" d="M-30.572 17.463a.721.721 0 0 0 .53.229H-30a.712.712 0 0 0 .541-.287l7.37-10.011a.673.673 0 0 0-.167-.958.736.736 0 0 0-.532-.118.711.711 0 0 0-.46.279l-6.854 9.312-3.56-3.843a.718.718 0 0 0-.49-.228.749.749 0 0 0-.514.174.672.672 0 0 0-.055.97z" style="fill:#f63" transform="translate(40.434)"/>
    </g>
</svg>
