<svg xmlns="http://www.w3.org/2000/svg" width="25" height="24.994" viewBox="0 0 25 24.994">
    <path data-name="Icon awesome-instagram" d="M12.505 6.089a6.408 6.408 0 1 0 6.408 6.408 6.4 6.4 0 0 0-6.408-6.408zm0 10.574a4.166 4.166 0 1 1 4.166-4.166 4.174 4.174 0 0 1-4.166 4.165zm8.163-10.836a1.495 1.495 0 1 1-1.495-1.495 1.491 1.491 0 0 1 1.495 1.495zm4.244 1.517a7.4 7.4 0 0 0-2.019-5.237A7.446 7.446 0 0 0 17.656.088c-2.064-.117-8.249-.117-10.312 0a7.435 7.435 0 0 0-5.239 2.013A7.421 7.421 0 0 0 .088 7.338c-.117 2.064-.117 8.249 0 10.312a7.4 7.4 0 0 0 2.017 5.237 7.455 7.455 0 0 0 5.237 2.019c2.064.117 8.249.117 10.312 0a7.4 7.4 0 0 0 5.237-2.019 7.446 7.446 0 0 0 2.019-5.237c.117-2.064.117-8.243 0-10.307zm-2.666 12.518a4.218 4.218 0 0 1-2.376 2.376c-1.645.653-5.549.5-7.368.5s-5.728.145-7.368-.5a4.218 4.218 0 0 1-2.375-2.376c-.653-1.645-.5-5.549-.5-7.368s-.145-5.728.5-7.368a4.218 4.218 0 0 1 2.376-2.373c1.645-.653 5.549-.5 7.368-.5s5.728-.145 7.368.5a4.218 4.218 0 0 1 2.376 2.376c.653 1.645.5 5.549.5 7.368s.151 5.728-.501 7.365z"/>
</svg>
