<svg xmlns="http://www.w3.org/2000/svg" width="24" height="23.999" viewBox="0 0 24 23.999">
    <g data-name="그룹 1052">
        <path data-name="패스 310" d="M4.949 8.726a.81.81 0 0 0-.537-1.01.8.8 0 0 0-.615.057.807.807 0 0 0-.4.48 7.321 7.321 0 0 0 .478 5.5.809.809 0 1 0 1.442-.734 5.792 5.792 0 0 1-.368-4.293z" transform="translate(-.497 -1.154)" style="fill:#f63"/>
        <path data-name="패스 311" d="m23.392 20.459-6.265-6.265a9.268 9.268 0 1 0-2.933 2.934l6.264 6.265a2.074 2.074 0 1 0 2.934-2.934zm-7.562-4.63c.1-.1.2-.211.3-.318l6.1 6.1a.44.44 0 0 1 0 .622.463.463 0 0 1-.622 0l-6.1-6.1c.111-.098.217-.2.322-.304zm-1.156-1.156a7.637 7.637 0 1 1 0-10.8 7.65 7.65 0 0 1 0 10.8z" transform="translate(0 -.001)" style="fill:#f63"/>
    </g>
</svg>
