<svg xmlns="http://www.w3.org/2000/svg" width="16" height="16" viewBox="0 0 16 16">
  <g id="그룹_1158" data-name="그룹 1158" transform="translate(-12 -12)">
    <g id="그룹_1159" data-name="그룹 1159" transform="translate(12 12)">
      <path id="패스_209" data-name="패스 209" d="M15.691,17.131A4.169,4.169,0,0,0,15,20.891a.666.666,0,1,0,1.275-.386,2.838,2.838,0,0,1,.469-2.559.666.666,0,0,0-1.054-.815Z" transform="translate(-12.942 -13.623)"/>
      <path id="패스_210" data-name="패스 210" d="M27.675,26.108l-4.621-4.621a6.07,6.07,0,1,0-1.568,1.568l4.621,4.621a1.108,1.108,0,0,0,1.567-1.567ZM21.4,21.4a4.726,4.726,0,1,1,1.385-3.343A4.7,4.7,0,0,1,21.4,21.4Z" transform="translate(-12 -12)"/>
    </g>
  </g>
</svg>
