<svg xmlns="http://www.w3.org/2000/svg" width="92.488" height="13.111" viewBox="0 0 92.488 13.111">
  <g id="ic_score_5" transform="translate(-975 -553.038)">
    <path id="Icon_awesome-star" data-name="Icon awesome-star" d="M7.555.455,5.884,3.845,2.143,4.39a.82.82,0,0,0-.453,1.4L4.4,8.426l-.64,3.725a.819.819,0,0,0,1.188.863L8.29,11.255l3.346,1.759a.819.819,0,0,0,1.188-.863l-.64-3.725,2.706-2.637a.82.82,0,0,0-.453-1.4L10.7,3.845,9.025.455a.82.82,0,0,0-1.47,0Z" transform="translate(1052.35 553.039)" fill="#f63"/>
    <path id="Icon_awesome-star-2" data-name="Icon awesome-star" d="M7.555.455,5.884,3.845,2.143,4.39a.82.82,0,0,0-.453,1.4L4.4,8.426l-.64,3.725a.819.819,0,0,0,1.188.863L8.29,11.255l3.346,1.759a.819.819,0,0,0,1.188-.863l-.64-3.725,2.706-2.637a.82.82,0,0,0-.453-1.4L10.7,3.845,9.025.455a.82.82,0,0,0-1.47,0Z" transform="translate(1032.652 553.039)" fill="#f63"/>
    <path id="Icon_awesome-star-3" data-name="Icon awesome-star" d="M7.555.455,5.884,3.845,2.143,4.39a.82.82,0,0,0-.453,1.4L4.4,8.426l-.64,3.725a.819.819,0,0,0,1.188.863L8.29,11.255l3.346,1.759a.819.819,0,0,0,1.188-.863l-.64-3.725,2.706-2.637a.82.82,0,0,0-.453-1.4L10.7,3.845,9.025.455a.82.82,0,0,0-1.47,0Z" transform="translate(1012.954 553.039)" fill="#f63"/>
    <path id="Icon_awesome-star-4" data-name="Icon awesome-star" d="M7.555.455,5.884,3.845,2.143,4.39a.82.82,0,0,0-.453,1.4L4.4,8.426l-.64,3.725a.819.819,0,0,0,1.188.863L8.29,11.255l3.346,1.759a.819.819,0,0,0,1.188-.863l-.64-3.725,2.706-2.637a.82.82,0,0,0-.453-1.4L10.7,3.845,9.025.455a.82.82,0,0,0-1.47,0Z" transform="translate(993.257 553.039)" fill="#f63"/>
    <path id="Icon_awesome-star-5" data-name="Icon awesome-star" d="M7.555.455,5.884,3.845,2.143,4.39a.82.82,0,0,0-.453,1.4L4.4,8.426l-.64,3.725a.819.819,0,0,0,1.188.863L8.29,11.255l3.346,1.759a.819.819,0,0,0,1.188-.863l-.64-3.725,2.706-2.637a.82.82,0,0,0-.453-1.4L10.7,3.845,9.025.455a.82.82,0,0,0-1.47,0Z" transform="translate(973.559 553.039)" fill="#f63"/>
  </g>
</svg>
