<svg xmlns="http://www.w3.org/2000/svg" width="240" height="24" viewBox="0 0 240 24">
  <g id="logo" transform="translate(22260 19005)">
    <rect id="사각형_493" data-name="사각형 493" width="240" height="24" transform="translate(-22260 -19005)" fill="#fff" opacity="0"/>
    <path id="패스_16" data-name="패스 16" d="M1522.665,759.024h5.156v18.57h25.594v4.315h-30.75Z" transform="translate(-23573.416 -19763.631)" fill="#fff"/>
    <path id="패스_17" data-name="패스 17" d="M1318.522,759.024h5.157v18.57h11.171v4.315h-16.328Z" transform="translate(-23460.029 -19763.631)" fill="#fff"/>
    <path id="패스_18" data-name="패스 18" d="M1377.3,777.005h-10.345l-1.974,4.9H1359.7l9.93-22.885h5.093l9.963,22.885h-5.411Zm-1.623-4.021-3.534-8.761-3.533,8.761Z" transform="translate(-23482.898 -19763.631)" fill="#fff"/>
    <path id="패스_19" data-name="패스 19" d="M1441.824,775.665c0,3.956-3.055,6.244-8.912,6.244h-11.522V759.024h10.885c5.571,0,8.435,2.387,8.435,5.951a5.52,5.52,0,0,1-2.96,5.034A5.634,5.634,0,0,1,1441.824,775.665Zm-15.31-12.652v5.395h5.124c2.515,0,3.884-.916,3.884-2.713s-1.369-2.681-3.884-2.681Zm10.122,12.1c0-1.928-1.432-2.844-4.106-2.844h-6.016v5.656h6.016C1435.2,777.921,1436.635,777.071,1436.635,775.109Z" transform="translate(-23517.164 -19763.631)" fill="#fff"/>
    <path id="패스_20" data-name="패스 20" d="M1492.732,777.659v4.25H1475.48V759.024h16.839v4.25h-11.713v4.969h10.344v4.119h-10.344v5.3Z" transform="translate(-23547.207 -19763.631)" fill="#fff"/>
    <g id="그룹_272" data-name="그룹 272" transform="translate(-22260 -19004.998)">
      <path id="패스_21" data-name="패스 21" d="M1115.018,770c0-6.8,5.156-11.835,12.19-11.835,7,0,12.191,5,12.191,11.835s-5.188,11.834-12.191,11.834C1120.174,781.835,1115.018,776.8,1115.018,770Zm19.161,0c0-4.348-2.992-7.323-6.97-7.323s-6.971,2.975-6.971,7.323,2.993,7.323,6.971,7.323S1134.178,774.349,1134.178,770Z" transform="translate(-1087 -758.166)" fill="#fff"/>
      <path id="패스_22" data-name="패스 22" d="M1198,759.024v22.885h-4.233l-11.109-13.894v13.894h-5.093V759.024h4.265l11.077,13.9v-13.9Z" transform="translate(-1121.738 -758.632)" fill="#fff"/>
      <path id="패스_23" data-name="패스 23" d="M1247.683,769.641h4.711v9.285a15.1,15.1,0,0,1-9.008,2.909c-7,0-12.159-4.936-12.159-11.834s5.156-11.835,12.254-11.835a11.727,11.727,0,0,1,9.326,3.956l-3.31,3.139a7.448,7.448,0,0,0-5.761-2.583,7.323,7.323,0,0,0-.063,14.646,8.012,8.012,0,0,0,4.01-.981Z" transform="translate(-1151.545 -758.166)" fill="#fff"/>
      <path id="패스_24" data-name="패스 24" d="M1052,759.024h5.156v18.57h21.264v4.315H1052Z" transform="translate(-1051.996 -758.632)" fill="#fff"/>
    </g>
  </g>
</svg>
